<svg width="58" height="58" viewBox="0 0 58 58" fill="none" xmlns="http://www.w3.org/2000/svg">
<path d="M41.9996 34.8609C42.025 37.3646 37.7138 35.2947 37 36L33.5 40.5L35 43.5C34.4673 44.0483 31.6963 47.2032 31 47.5C30.3037 47.7968 29.9425 49 29.1888 49C28.4351 49 28.1963 48.2968 27.5 48C26.8037 47.7032 23.5327 44.0483 23 43.5L24.5 40.5L22.5 37C21.0801 35.5282 15.992 36.8595 16 34.7863C16.008 32.713 16.8165 30.728 18.2476 29.2678C19.6788 27.8076 21.6154 26.9919 23.6314 27.0001C25.6474 27.0083 27.5777 27.8397 28.9976 29.3115C29.683 28.579 30.5074 27.999 31.4195 27.6073C33.2751 26.8484 35.3427 26.8484 37.1982 27.6073C38.1104 27.999 38.9347 28.579 39.6201 29.3115C40.3412 30.0087 40.9066 30.8584 41.2772 31.8021C41.7217 32.7592 41.9676 33.8008 41.9996 34.8609Z" fill="#DA1C5C"/>
<path d="M7.74074 26.0185C7.99678 29.155 10.7309 35.4524 19.5891 35.8579C19.8084 35.8679 20.0285 35.9175 20.224 36.0172C23.6359 37.757 27.7912 41.918 19.4244 45.95C19.206 46.0553 18.9586 46.1093 18.7164 46.0975C14.3657 45.8857 4.90869 43.722 2.00657 36.4667M50.3241 26.0185C49.8769 29.2551 46.8107 35.6816 38.1345 35.8663C37.8845 35.8716 37.6335 35.9271 37.4159 36.0504C34.6413 37.6223 31.2557 41.4653 37.3646 45.8428C37.6105 46.019 37.9069 46.1166 38.2094 46.1156C42.1316 46.1024 52.0222 44.8544 55.1333 38.3333M57 29C57 44.464 44.464 57 29 57C13.536 57 1 44.464 1 29C1 13.536 13.536 1 29 1C44.464 1 57 13.536 57 29Z" stroke="#444B55" stroke-width="1.4" stroke-linecap="round"/>
<path d="M40.0479 29.1131L39.5571 29.6123L39.5574 29.6125L40.0479 29.1131ZM37.8167 27.6475L37.5527 28.2958L37.8167 27.6475ZM32.5524 27.6475L32.8164 28.2958V28.2958L32.5524 27.6475ZM30.3212 29.1131L30.8119 29.6124L30.812 29.6123L30.3212 29.1131ZM29.0661 30.3466L29.5568 30.8459L29.5568 30.8459L29.0661 30.3466ZM28.9259 30.3466L29.4166 29.8473L29.4166 29.8473L28.9259 30.3466ZM27.6708 29.1131L28.1614 28.6139V28.6139L27.6708 29.1131ZM22.8075 27.1335V27.8335V27.1335ZM17.9441 29.1131L18.4348 29.6124L17.9441 29.1131ZM15.2297 33.8925C15.2297 34.2791 15.5431 34.5925 15.9297 34.5925C16.3163 34.5925 16.6297 34.2791 16.6297 33.8925H15.2297ZM41.363 33.8925C41.363 34.2791 41.6764 34.5925 42.063 34.5925C42.4496 34.5925 42.763 34.2791 42.763 33.8925H41.363ZM24.6233 44.2542C24.3476 43.9832 23.9044 43.9871 23.6334 44.2628C23.3624 44.5386 23.3663 44.9818 23.642 45.2527L24.6233 44.2542ZM27.8887 48.4446L28.3794 47.9454L27.8887 48.4446ZM30.1033 48.4446L29.6127 47.9454H29.6127L30.1033 48.4446ZM34.35 45.2527C34.6257 44.9818 34.6296 44.5386 34.3586 44.2628C34.0876 43.9871 33.6444 43.9832 33.3687 44.2542L34.35 45.2527ZM40.5387 28.614C39.8346 27.9217 38.9992 27.3732 38.0807 26.9992L37.5527 28.2958C38.3031 28.6014 38.9841 29.0489 39.5571 29.6123L40.5387 28.614ZM38.0807 26.9992C37.1622 26.6252 36.1781 26.4328 35.1846 26.4328V27.8328C35.9976 27.8328 36.8023 27.9902 37.5527 28.2958L38.0807 26.9992ZM35.1846 26.4328C34.191 26.4328 33.2069 26.6252 32.2884 26.9992L32.8164 28.2958C33.5668 27.9902 34.3716 27.8328 35.1846 27.8328V26.4328ZM32.2884 26.9992C31.3699 27.3732 30.5346 27.9217 29.8305 28.614L30.812 29.6123C31.385 29.0489 32.066 28.6014 32.8164 28.2958L32.2884 26.9992ZM29.8306 28.6139L28.5755 29.8473L29.5568 30.8459L30.8119 29.6124L29.8306 28.6139ZM29.4166 29.8473L28.1614 28.6139L27.1801 29.6124L28.4353 30.8459L29.4166 29.8473ZM28.1614 28.6139C26.7394 27.2164 24.8133 26.4335 22.8075 26.4335V27.8335C24.4498 27.8335 26.0225 28.4747 27.1801 29.6124L28.1614 28.6139ZM22.8075 26.4335C20.8016 26.4335 18.8755 27.2164 17.4535 28.6139L18.4348 29.6124C19.5924 28.4747 21.1651 27.8335 22.8075 27.8335V26.4335ZM17.4535 28.6139C16.0311 30.0117 15.2297 31.9102 15.2297 33.8925H16.6297C16.6297 32.2895 17.2775 30.7497 18.4348 29.6124L17.4535 28.6139ZM42.763 33.8925C42.763 32.9111 42.5663 31.9397 42.1843 31.0338L40.8943 31.5777C41.2038 32.312 41.363 33.0985 41.363 33.8925H42.763ZM42.1843 31.0338C41.8024 30.128 41.2429 29.3057 40.5384 28.6138L39.5574 29.6125C40.1306 30.1756 40.5847 30.8435 40.8943 31.5777L42.1843 31.0338ZM23.642 45.2527L27.3981 48.9439L28.3794 47.9454L24.6233 44.2542L23.642 45.2527ZM30.594 48.9439L34.35 45.2527L33.3687 44.2542L29.6127 47.9454L30.594 48.9439ZM27.3981 48.9439C28.2851 49.8156 29.707 49.8156 30.594 48.9439L29.6127 47.9454C29.2704 48.2817 28.7217 48.2817 28.3794 47.9454L27.3981 48.9439ZM28.5755 29.8473C28.8089 29.6179 29.1831 29.6179 29.4166 29.8473L28.4353 30.8459C28.7465 31.1517 29.2455 31.1517 29.5568 30.8459L28.5755 29.8473Z" fill="#444B55"/>
<path d="M19.6641 12.1982V15.9316" stroke="#444B55" stroke-width="1.4" stroke-linecap="round"/>
<path d="M38.3398 12.1982V15.9316" stroke="#444B55" stroke-width="1.4" stroke-linecap="round"/>
</svg>
